<?xml version="1.0" encoding="utf-8"?>
<!-- Generator: Adobe Illustrator 16.0.0, SVG Export Plug-In . SVG Version: 6.00 Build 0)  -->
<!DOCTYPE svg PUBLIC "-//W3C//DTD SVG 1.1//EN" "http://www.w3.org/Graphics/SVG/1.1/DTD/svg11.dtd">
<svg version="1.1" id="Layer_1" xmlns="http://www.w3.org/2000/svg" xmlns:xlink="http://www.w3.org/1999/xlink" x="0px" y="0px"
	 width="612px" height="792px" viewBox="0 0 612 792" enable-background="new 0 0 612 792" xml:space="preserve">
<g>
	
		<rect x="270.019" y="370.9" transform="matrix(0.962 -0.273 0.273 0.962 -90.8762 89.6533)" fill-rule="evenodd" clip-rule="evenodd" fill="#B4B6B4" width="13.296" height="0.85"/>
	<g>
		<path fill="#B4B6B4" d="M263.836,377.011l5.915-1.679c0.199-0.233,0.359-0.479,0.474-0.727l-7.174,2.036
			C263.279,376.792,263.544,376.917,263.836,377.011z"/>
		<path fill="#B4B6B4" d="M268.507,371.671l-5.537,1.572c-0.282,0.297-0.509,0.613-0.652,0.94l7.238-2.055
			C269.263,371.926,268.904,371.775,268.507,371.671z"/>
		<path fill="#B4B6B4" d="M262.323,375.85c0.09,0.174,0.207,0.336,0.35,0.48l7.708-2.188c0.055-0.235,0.07-0.471,0.038-0.702
			l-8.126,2.307L262.323,375.85z"/>
		<path fill="#B4B6B4" d="M269.924,372.442l-7.754,2.201c-0.041,0.198-0.042,0.395-0.022,0.59l0.029,0.104l8.118-2.305
			C270.208,372.817,270.089,372.616,269.924,372.442z"/>
	</g>
</g>
<path fill-rule="evenodd" clip-rule="evenodd" fill="#EF1213" d="M283.66,365.91c0.149-3.113,1.837-5.549,3.93-7.537
	c1.062-1.009,2.755-1.75,4.519-1.413c0.583,0.111,1.178,0.163,1.767,0.241c0.345-0.231,0.711-0.246,1.095-0.118
	c0.715,0.282,1.277,0.749,1.68,1.407c0.674,1.514,1.653,2.824,2.723,4.075c0.429,0.429,0.739,0.941,1.006,1.477
	c0.771,1.544,1.785,2.869,3.033,4.091c3.534,3.464,7.774,4.153,12.227,2.786c2.354-0.723,4.44-2.253,5.528-4.89
	c1.22-2.956,1.871-5.902,1.47-9.071c-0.046-0.361-0.043-0.717,0.148-1.047c0.314-0.364,0.672-0.442,1.081-0.16
	c2.481,0.072,4.412,1.348,6.283,2.811c2.618,2.046,5.462,3.763,8.317,5.449c1.291,0.763,2.377,1.703,3.38,2.813
	c3.139,3.473,6.156,7.03,8.697,10.979c0.891,1.385,1.169,2.65,0.497,4.248c-2.383,5.667-4.435,11.477-7.659,16.763
	c-1.169,1.916-2.577,3.656-3.792,5.533c-0.606,0.938-1.049,0.176-1.551-0.088c-0.171-0.041-0.331-0.104-0.448-0.242
	c-1.182-1.742-2.343-3.49-4.293-4.521c-0.457-0.24-0.977-0.609-0.765-1.318c0.091-0.133,0.191-0.291,0.34-0.326
	c1.655-0.396,2.284-1.719,2.87-3.104c0.295-0.698,0.61-1.399,1.018-2.035c1.689-2.638,1.885-5.622,2.082-8.615
	c0.042-0.642-0.14-1.149-0.585-1.622c-1.253-1.334-2.229-2.928-3.766-3.999c-0.189-0.132-0.348-0.318-0.706-0.336
	c-0.029,0.904-0.029,1.776-0.011,2.645c0.021,1.008-0.322,1.857-0.926,2.653c-1.185,1.563-2.436,3.064-3.88,4.394
	c-0.673,0.619-0.781,1.329-0.814,2.237c-0.089,2.407,0.83,4.427,2.01,6.4c0.203,0.34,0.443,0.674,0.321,1.111
	c-0.562,0.549-1.118,0.191-1.656-0.035c-0.736-0.309-1.416-0.742-2.171-1.016c-0.464-0.168-0.925-0.178-1.477-0.023
	c0.23,0.742,0.776,1.043,1.35,1.307c0.398,0.184,0.838,0.285,1.183,0.57c0.471,0.391,0.423,0.719-0.138,0.984
	c-0.417,0.197-0.975,0.064-1.297,0.551c0.446,0.439,1.063,0.27,1.566,0.469c0.362,0.145,0.867,0.195,0.87,0.682
	c0.002,0.43-0.466,0.484-0.802,0.586c-0.367,0.111-0.755,0.174-1.032,0.52c0.427,0.365,0.901,0.18,1.306,0.316
	c0.729,0.248,0.856,0.643,0.376,1.244c-0.149,0.189-0.368,0.309-0.524,0.492c-0.215,0.252-0.385,0.547-0.205,0.869
	c0.172,0.305,0.503,0.17,0.769,0.16c0.319-0.01,0.624-0.133,0.946-0.148c0.538-0.023,0.9,0.193,0.787,0.762
	c-0.153,0.766,0.19,0.932,0.84,0.842c0.24,0.014,0.438,0.1,0.554,0.324c0.174,1.357,0.095,2.666-0.327,4.002
	c-1.252,3.959-1.84,8.078-2.716,12.127c-1.554,7.18-3.754,14.18-5.816,21.217c-0.09,0.307-0.176,0.615-0.264,0.92
	c0.237,0.92-0.562,1.6-0.562,2.467c-1.324,2.322-3.371,3.705-5.931,4.207c-3.079,0.604-6.17,1.15-9.269,1.656
	c-1.99,0.324-3.932,0.436-5.855-0.393c-2.003-0.863-4.145-1.352-6.034-2.549c-1.055-0.668-2.387-0.822-3.688-0.65
	c-0.272-0.053-0.541-0.113-0.693-0.385c-0.803-3.713-1.066-7.498-1.441-11.268c-0.135-1.354-0.173-2.709-0.046-4.066
	c0.435-4.629-0.63-9.143-1.049-13.705c-0.241-2.625-0.529-5.246-0.773-7.871c-0.417-4.465,0.777-8.615,2.424-12.695
	c0.836-2.072,1.676-4.168,2.208-6.329c0.412-1.676,0.469-3.452-0.343-5.15c-1.276-2.67-2.499-5.377-2.158-8.47
	c0.069-0.628,0.12-1.257,0.181-1.913c-0.667,0.052-1.181,0.377-1.71,0.636c-0.585,0.286-0.883,0.05-1.079-0.477
	c-0.928-0.569-0.861-1.461-0.649-2.311c0.219-0.876,0.466-1.757,0.973-2.542c0.298-0.462,0.495-0.993,0.685-1.515
	c0.53-1.463,0.36-1.936-0.966-2.708c-0.379-0.377-0.857-0.686-0.929-1.283c0.048-0.519-0.253-0.726-0.693-0.923
	C284.619,366.801,283.94,366.609,283.66,365.91z"/>
<path fill-rule="evenodd" clip-rule="evenodd" fill="#D41B22" d="M290.576,449.654c0.214,0.014,0.428,0.025,0.642,0.039
	c0.161,0.594-0.363,0.709-0.681,0.965c-2.755,2.215-5.763,4.031-8.949,5.545c-1.66,0.789-2.881,2-3.761,3.566
	c-0.694,1.236-1.666,2.129-2.929,2.734c-0.18,0.088-0.345,0.203-0.521,0.297c-1.993,1.049-3.957,2.127-4.67,4.24
	c1.474-1.111,3.107-2.398,5.313-2.561c0.745-0.055,1.211-0.551,1.495-1.225c1.373-3.27,4.134-5.197,6.906-7.1
	c0.988-0.678,2.07-1.211,3.103-1.822c1.147-0.68,2.404-0.857,3.691-0.879c0.925-0.016,1.146,0.434,0.625,1.215
	c-0.376,0.566-0.877,1.035-1.308,1.562c-3.379,4.135-5.838,8.723-7.2,13.92c-1.062,4.057-2.044,8.135-3.187,12.17
	c-0.076,0.27-0.179,0.529-0.369,0.758c2.296-4.115,3.149-8.691,4.359-13.168c1.317-4.875,3.679-9.266,6.982-13.115
	c0.884-1.031,1.43-0.951,2.09,0.209c0.393,0.689,0.538,1.418,0.369,2.195c-1.489,6.842-1.922,13.846-3.192,20.723
	c-0.186,1.006-0.514,1.898-1.141,2.725c-1.314,1.727-2.462,3.58-3.969,5.158c0.391-0.396,0.811-0.801,1.297-1.051
	c3.437-1.768,4.742-5.156,6.355-8.303c0.502-0.98,0.422-2.105,0.548-3.17c0.552-4.639,0.795-9.305,1.175-13.959
	c0.104-1.271,0.02-2.555,0.275-3.822c0.167-0.832,0.599-1.273,1.436-1.338c0.159-0.012-0.04,0.006,0.12-0.01
	c3.148-0.32,3.117-0.312,3.979,2.768c0.581,2.078,1.242,4.135,1.479,6.184c-0.062-2.283-0.69-4.605-0.852-6.988
	c-0.113-1.676,0.781-2.416,2.342-1.715c1.332,0.6,2.496,1.477,3.06,2.902c1.409,3.566,2.689,7.178,3.871,10.824
	c0.338,1.041,0.184,2.146,0.229,3.219c0.112,2.652,1.008,5.104,1.997,7.49c1.547,3.729,1.901,7.646,2.289,11.586
	c0.184,1.855,0.118,3.766,0.861,5.395c-0.636-1.039-0.449-2.373-0.551-3.623c-0.316-3.861-0.757-7.709-1.06-11.57
	c-0.13-1.658-0.751-3.18-1.315-4.717c-1.97-5.363-3.528-10.85-4.922-16.383c-0.303-1.201-0.677-2.387-0.881-3.611
	c-0.076-0.455-0.298-1.057,0.259-1.281c0.514-0.209,0.88,0.283,1.151,0.674c1.666,2.402,3.118,4.936,4.472,7.523
	c1.353,2.584,2.65,5.197,3.966,7.803c0.633,1.254,1.819,1.994,2.955,3.055c-1.184-2.387-2.383-4.557-3.616-6.703
	c-2.051-3.57-4.233-7.064-6.015-10.785c-0.155-0.324-0.326-0.643-0.467-0.973c-0.273-0.648-0.526-1.293,0.251-1.801
	c0.729-0.477,1.559-0.393,2.127,0.355c0.994,1.307,2.067,2.666,2.492,4.215c1.075,3.926,3.31,7.143,5.704,10.301
	c0.146,0.191,0.277,0.393,0.342,0.605c-2.391-4.314-4.617-8.74-6.927-13.123c-0.279-0.527-0.578-1.064-0.54-1.693
	c0.033-0.549,0.239-1.041,0.783-1.248c0.53-0.201,0.919,0.131,1.252,0.496c0.353,0.389,0.584,0.857,0.834,1.314
	c1.901,3.465,4.209,6.715,5.531,10.484c0.135,0.385,0.379,0.695,0.718,0.938c0.971,0.693,1.93,1.406,3.016,2.107
	c-0.455-2.523-1.904-4.467-3.086-6.521c-0.999-1.734-1.963-3.48-2.748-5.324c-0.487-1.143-1.052-2.246-1.997-3.104
	c-0.177-0.16-0.317-0.359-0.431-0.572c-0.134-0.254-0.258-0.535-0.08-0.793c0.234-0.338,0.594-0.221,0.868-0.08
	c1.142,0.582,2.319,1.172,3.038,2.275c3.012,4.619,6.152,9.164,8.53,14.164c2.047,4.303,4.341,8.449,7.104,12.348
	c1.783,2.518,2.662,5.525,4.017,8.279c0.404,0.822,0.867,1.623,1.079,2.279c-1.398-2.934-2.782-6.133-4.289-9.275
	c-0.939-1.961-1.585-4.037-2.112-6.109c-1.162-4.568-3.415-8.596-5.741-12.607c-0.442-0.762-0.903-1.518-1.274-2.311
	c-1.644-3.518-4.062-6.494-6.507-9.455c-0.382-0.463-0.763-0.93-1.066-1.449c-0.199-0.34-0.467-0.715-0.173-1.104
	c0.269-0.355,0.704-0.352,1.106-0.295c0.879,0.121,1.707,0.414,2.506,0.797c0.821,0.393,1.621,0.83,2.592,1.273
	c-0.467-0.818-1.188-1.012-1.812-1.332c-0.462-0.236-0.952-0.42-1.384-0.715c-0.307-0.209-0.708-0.551-0.547-0.846
	c0.405-0.744,0.266-1.717,0.911-2.332c-0.328-0.102-0.668,0.482-1.104,0.156c0.219-0.779,0.354-1.592,0.917-2.225
	c3.449-0.189,6.533,0.785,9.277,2.881c0.538,0.41,1.095,0.836,1.708,1.104c2.651,1.16,4.203,3.422,5.938,5.576
	c3.056,3.795,5.172,8.162,7.805,12.209c3.383,5.201,7.042,10.191,11.098,14.889c1.425,1.65,1.441,2.994,0.149,4.91
	c-0.15,0.072-0.256,0.197-0.326,0.338c-0.694,1.404-1.883,1.859-3.351,1.688c-0.932-0.107-1.378,0.297-1.654,1.15
	c-0.467,1.439-1.128,2.811-1.586,4.252c-0.233,0.734-0.7,1.016-1.413,0.963c-1.204-0.092-2.372,0.289-3.571,0.254
	c-0.52-0.016-0.874,0.344-1.27,0.605c-2.216,1.463-4.046,3.361-5.856,5.27c-0.607,0.639-1.238,0.906-2.102,0.85
	c-1.271-0.086-2.547,0.053-3.821-0.123c-1.44-0.197-2.459,0.803-3.584,1.426c-0.729,0.402-1.425,0.705-2.252,0.602
	c-1.086-0.135-2.065,0.307-2.989,0.705c-1.138,0.492-2.235,0.424-3.381,0.275c-0.616,0.01-1.225-0.027-1.801-0.275
	c-0.934-0.113-1.771,0.131-2.499,0.715c-0.623,0.498-1.296,0.871-2.095,0.988c-1.516-0.336-3.031-0.67-4.547-1.006
	c-2.187-0.35-4.327,0.047-6.455,0.459c-0.598,0.117-1.162,0.16-1.75,0.086c-0.982,0.17-1.752-0.383-2.588-0.736
	c-0.61-0.258-1.141-0.762-1.878-0.668c-0.639-0.289-1.218-0.014-1.828,0.152c-0.924,0.25-1.837,0.748-2.836,0.277
	c-1.846,0.445-2.72-1.137-3.983-1.91c-1.307-0.258-2.576,0.102-3.849,0.279c-0.442,0.061-0.851,0.127-1.274-0.023
	c-2.093,0.082-2.09,0.08-2.738-1.967c-0.083-0.264-0.208-0.514-0.313-0.77c-0.171-0.104-0.358-0.201-0.446-0.387
	c-0.341-0.719-0.718-0.51-1.188-0.107c-0.759,0.646-1.504,1.311-2.318,1.893c-0.557,0.396-1.128,0.746-1.86,0.605
	c-0.921,0.516-1.695,0.197-2.491-0.355c-1.143-0.793-2.288-1.637-3.672-1.949c-1.321-0.297-1.54-1.178-1.457-2.307
	c0.058-0.787,0.641-1.754,0.117-2.293c-0.41-0.422-1.429-0.25-2.176-0.348c-0.473-0.061-0.942-0.152-1.417-0.197
	c-3.502-0.32-5.045-2.605-4.259-6.08c0.353-1.562,1.182-2.748,2.229-3.861c0.345-0.365,0.727-0.758-0.104-1.014
	c-1.139-0.111-2.273-0.23-3.376,0.252c-0.318,0.139-0.69,0.203-1.017-0.051c-1.476,1.004-3.179,1.695-4.383,3.139
	c0.681-1.424,1.203-2.898,1.846-4.314c0.555-1.221,0.286-2.43,0.259-3.65c-0.013-0.576-0.494-0.584-0.867-0.609
	c-0.89-0.057-1.09-0.717-0.981-1.336c0.119-0.674-0.705-1.506,0.572-2.082c0.901-0.408,1.515-1.49,2.208-2.311
	c4.301-5.088,8.886-9.934,12.792-15.363c1.216-1.691,3.106-2.92,5.01-3.807C279.261,451.746,285.005,450.994,290.576,449.654z"/>
<path fill-rule="evenodd" clip-rule="evenodd" fill="#D2D245" d="M323.866,355.751c-0.312,0.069-0.676-0.03-0.917,0.275
	c-0.24,0.276-0.516,0.488-0.9,0.512c-1.94,0.122-3.869,0.035-5.781-0.326c-0.274-0.052-0.485-0.261-0.727-0.394
	c-0.473-0.44-0.375-0.993-0.288-1.536c0.144-0.909,0.076-1.794-0.253-2.655c-0.039-0.592-0.17-1.169-0.298-1.747
	c-0.006-0.254-0.018-0.51,0.022-0.762c0.163-0.612,0.247-1.288,0.582-1.802c1.135-1.741,0.986-3.505,0.294-5.322
	c0.501-0.956,0.944-0.435,1.278,0.104c0.201,0.324,0.246,0.752,0.303,0.967c-0.112-0.81-0.71-1.666-0.76-2.687
	c-0.021-0.437-0.315-0.753-0.833-0.571c-0.787,0.278-1.078-0.187-1.312-0.812c-0.444-1.19-0.823-2.402-1.236-3.603
	c-0.516-1.502-1.663-2.249-3.091-2.615c-1.082-0.277-2.168-0.602-3.122-1.121c-0.94-0.511-1.712-0.474-2.564-0.01
	c-0.285,0.155-0.586,0.395-0.889,0.241c-0.902-0.457-1.39,0.124-1.947,0.658c-1.09,1.044-2.289,1.952-3.585,2.729
	c-0.2-1.133-0.471-2.26-0.584-3.401c-0.309-3.13,0.486-4.567,3.286-5.963c0.638-0.318,1.033-0.852,1.534-1.293
	c0.098-0.072,0.233-0.17,0.323-0.127c1.212,0.577,2.312,0.13,3.411-0.351c0.42-0.229,0.84-0.458,1.259-0.688
	c0.846-0.431,1.668-0.34,2.509,0.051c1.649,0.768,3.17,1.832,5.006,2.179c0.223,0.042,0.498,0.156,0.59,0.375
	c0.773,1.83,2.245,3.403,2.042,5.597c-0.097,1.043,0.53,1.989,0.473,3.035c0.039,0.232,0.221,0.248,0.402,0.265
	c1.525,0.352,2.769,1.095,3.416,2.585c0.396,0.912,0.761,1.841,1.369,2.634c0.967,1.263,1.212,2.753,1.265,4.257
	c0.044,1.289,0.262,2.543,0.666,3.731c0.646,1.896,0.5,3.745,0.064,5.624C324.537,354.439,324.201,355.095,323.866,355.751z"/>
<path fill-rule="evenodd" clip-rule="evenodd" fill="#E3C89D" d="M286.909,368.992c1.637,0.35,2.008,0.911,1.548,2.571
	c-0.209,0.756-0.5,1.522-0.917,2.18c-0.915,1.449-1.4,2.921-0.751,4.604c-0.352,0.246-0.704,0.491-1.056,0.735
	c-1.088,1.228-2.43,1.681-4.038,1.329c-1.869-0.335-3.323-1.692-5.164-2.107c-0.252-0.057-0.375-0.521-0.276-0.576
	c0.958-0.53,0.337-1.753,1.154-2.418c0.624-0.507,0.989-1.37,0.905-2.266c-0.071-0.759,0.213-1.134,0.986-1.109
	c0.381-0.487,0.843-0.321,1.304-0.162c0.299,0.104,0.611,0.398,0.894,0.277c1.282-0.547,2.598-0.989,3.913-1.445
	c0.386-0.134,0.306-0.611,0.418-0.941C286.002,369.153,286.181,368.623,286.909,368.992z"/>
<path fill-rule="evenodd" clip-rule="evenodd" fill="#620000" d="M297.843,335.274c0.342-0.69,0.842-1.189,1.504-1.625
	c0.858-0.566,1.623-1.29,2.364-2.011c0.495-0.483,0.889-0.954,1.505-0.186c0.265,0.331,0.459,0.271,0.721-0.078
	c0.605-0.806,2.284-0.806,2.947-0.056c0.093,0.105,0.255,0.205,0.388,0.208c0.748,0.016,1.585,0.632,1.987,0.585
	c1.489-0.175,2.147,1.153,3.319,1.418c0.506,0.114,0.564,0.649,0.703,1.038c0.586,1.65,1.127,3.316,1.684,4.973
	c0.556,0.139,0.537-0.921,1.13-0.551c0.591,0.371,0.961,0.869,0.915,1.674c-0.052,0.915,0.182,1.822,0.479,2.695
	c0.146,0.43,0.271,0.839-0.175,1.231c-0.345-0.574-0.271-1.227-0.439-1.816c-0.153-0.538-0.291-1.116-1.081-0.898
	c-0.347,0.561-0.506,1.463-1.26,1.445c-0.832-0.02-0.751-0.997-1.003-1.575c-0.414-0.947-0.672-1.957-1.007-2.935
	c-0.792-2.307-2.117-3.895-4.712-4.512c-3.341-0.794-5.886,0.464-8.318,2.422c-0.247,0.199-0.441,0.46-0.769,0.54
	c-0.271,0.003-0.512-0.035-0.512-0.389C298.092,336.339,297.684,335.872,297.843,335.274z"/>
<path fill-rule="evenodd" clip-rule="evenodd" fill="#D2D344" d="M294.898,357.438c-0.341-0.079-0.682-0.157-1.023-0.236
	c0.237-1.728,0.41-3.455,1.122-5.097c0.459-1.06,0.41-2.261,0.416-3.417c0.006-1.39-0.059-2.782,0.365-4.142
	c0.208-0.669-0.03-1.346-0.187-1.999c-0.504-2.101,0.168-3.736,1.905-4.97c0.351-0.229,0.626-0.108,0.865,0.187
	c0.325,0.805-0.1,1.544-0.199,2.313c-0.883,1.604-0.366,3.226-0.056,4.845c0.012,0.129,0.018,0.259,0.02,0.389
	c-0.107,2.027-0.233,4.048,0.104,6.076c0.132,0.796,0.239,1.578,0.627,2.29c0.553,1.015,0.595,1.948-0.251,2.857
	c-1.109,1.191-1.768,1.418-3.125,0.947C295.288,357.414,295.099,357.373,294.898,357.438z"/>
<path fill-rule="evenodd" clip-rule="evenodd" fill="#828481" d="M286.909,368.992c-0.571,0.004-0.771,0.333-0.693,0.848
	c0.146,0.968-0.368,1.328-1.229,1.484c-1.051,0.191-2.077,0.49-2.939,1.168c-0.429,0.337-0.821,0.429-1.232-0.028
	c-0.403-0.449-0.948-0.533-1.517-0.529c-0.669-1.165-1.824-0.912-2.868-0.981c-0.347-0.556-0.282-1.079,0.129-1.573
	c0.39-0.339,0.87-0.39,1.35-0.362c1.277,0.075,2.435-0.35,3.571-0.838c0.958-0.412,1.955-0.683,2.959-0.931
	c0.704-0.174,1.354-0.098,1.786,0.592C286.241,368.351,286.732,368.578,286.909,368.992z"/>
<path fill-rule="evenodd" clip-rule="evenodd" fill="#B4B6B4" d="M286.225,367.841c-1.502-0.613-2.851,0.135-4.118,0.667
	c-1.769,0.742-3.522,1.187-5.429,0.982c-0.429,0.004-0.656-0.217-0.708-0.634c1.797-0.939,3.802-1.282,5.684-1.98
	c0.7-0.259,1.466-0.375,2.006-0.965c0.691,0.302,1.369,0.639,2.077,0.894C286.293,367.004,286.333,367.368,286.225,367.841z"/>
<path fill-rule="evenodd" clip-rule="evenodd" fill="#C75251" d="M275.179,502.729c1.578-0.775,2.874-1.934,4.167-3.09
	c1.019-0.91,1.084-0.91,1.488,0.395c0.07,0.225,0.105,0.461,0.157,0.691c-1.046,0.83-2.027,1.729-3.27,2.314
	C276.735,503.504,275.943,503.523,275.179,502.729z"/>
<path fill-rule="evenodd" clip-rule="evenodd" fill="#D2D245" d="M324.873,353.784c0.355-2.283,0.23-4.521-0.585-6.703
	c-0.097-0.258-0.146-0.545-0.157-0.82c-0.106-2.627-0.898-4.969-2.172-7.321c-0.975-1.799-2.13-3.088-3.865-3.987
	c0.823-0.267,2.678,0.561,3.207,1.66c1.384,2.874,3.385,5.518,3.182,9c-0.06,1.028,0.495,2.083,0.712,3.136
	C325.545,350.45,325.634,352.147,324.873,353.784z"/>
<path fill-rule="evenodd" clip-rule="evenodd" fill="#D2D245" d="M317.69,334.688c-0.848-1.523-0.549-3.269-0.942-4.885
	c-0.328-1.351-1.407-2.291-1.826-3.582c-0.038-0.117-0.242-0.22-0.387-0.254c-1.922-0.458-3.57-1.542-5.346-2.335
	c-0.693-0.31-1.406-0.173-2.117-0.182c0.731-0.789,1.619-0.593,2.425-0.258c1.8,0.75,3.438,1.872,5.368,2.332
	c0.179,0.042,0.416,0.182,0.475,0.334c0.592,1.547,1.895,2.762,2.009,4.546c0.074,1.179-0.008,2.4,0.54,3.521
	C318.012,334.179,317.932,334.478,317.69,334.688z"/>
<path fill-rule="evenodd" clip-rule="evenodd" fill="#DFB77A" d="M331.73,407.035c-0.121-0.033-0.241-0.064-0.362-0.096
	c-0.58-0.738-0.468-1.32,0.397-1.344c1.815-0.051,3.337-0.842,4.9-1.584c0.407-0.193,0.832-0.264,1.231,0.045
	c0.047,0.068,0.095,0.137,0.142,0.203c-0.307,1.748-1.691,2.139-3.116,2.402C333.871,406.855,332.795,406.916,331.73,407.035z"/>
<path fill-rule="evenodd" clip-rule="evenodd" fill="#C65252" d="M257.555,484.525c1.442-0.557,2.872-1.385,4.393-0.201
	c-2.169,0.85-4.093,2.078-5.885,3.932C256.542,486.828,257.388,485.807,257.555,484.525z"/>
<path fill-rule="evenodd" clip-rule="evenodd" fill="#838482" d="M281.694,380.41c1.347-0.443,2.692-0.886,4.039-1.328
	c-0.368,1.533-1.252,2.497-2.483,2.641C282.292,381.834,281.576,381.602,281.694,380.41z"/>
<path fill-rule="evenodd" clip-rule="evenodd" fill="#C55455" d="M302.28,506.09c2.7-0.713,5.404-1.357,8.205-0.545
	c-2.254,0.107-4.5,0.287-6.685,0.898C303.214,506.607,302.709,506.541,302.28,506.09z"/>
<path fill-rule="evenodd" clip-rule="evenodd" fill="#C65252" d="M315.032,506.551c0.851-0.637,1.654-1.354,2.567-1.885
	c0.627-0.363,1.365-0.084,2.025,0.182c-1.041,0.143-1.719,0.924-2.52,1.475C316.424,506.791,315.781,506.992,315.032,506.551z"/>
<path fill-rule="evenodd" clip-rule="evenodd" fill="#C65454" d="M293.15,505.115c1.047-0.15,2.079-0.33,3.02-0.877
	c0.662-0.387,1.273-0.354,1.645,0.447c-1.283,1.006-2.809,0.738-4.269,0.803C293.326,505.498,293.215,505.311,293.15,505.115z"/>
<path fill-rule="evenodd" clip-rule="evenodd" fill="#C45354" d="M284.043,503.461c1.674-0.75,3.388-0.713,5.123-0.256
	c-1.388,0.078-2.714,0.471-4.049,0.812C284.58,504.154,284.073,504.279,284.043,503.461z"/>
<path fill-rule="evenodd" clip-rule="evenodd" fill="#D2D245" d="M305.812,324.138c-1.157,0.842-2.383,1.152-3.734,0.479
	c0.137-0.196,0.333-0.477,0.548-0.353C303.729,324.901,304.756,324.253,305.812,324.138z"/>
<path fill-rule="evenodd" clip-rule="evenodd" fill="#C3D8E2" d="M349.729,500.205c-0.778,0.428-1.032,0.902-0.921,1.592
	c-0.445-0.334-0.483-0.768-0.33-1.172C348.635,500.211,349.041,500.18,349.729,500.205z"/>
<path fill-rule="evenodd" clip-rule="evenodd" fill="#908D50" d="M298.247,337.9c-0.25-0.108-0.5-0.216-0.749-0.324
	c0.238-0.235,0.477-0.47,0.715-0.704c0.148,0.073,0.297,0.146,0.446,0.218c0.401,0.07,0.675,0.282,0.772,0.692
	c0.023,0.189-0.018,0.362-0.134,0.516C298.797,338.562,298.519,338.24,298.247,337.9z"/>
<path fill-rule="evenodd" clip-rule="evenodd" fill="#B4B6B4" d="M275.971,368.812c-0.127,0.476-0.254,0.951-0.382,1.427
	C275.228,369.633,274.706,368.983,275.971,368.812z"/>
<path fill-rule="evenodd" clip-rule="evenodd" fill="#BC2124" d="M321.691,447.525c0.796-0.779,1.746-0.527,2.822-0.43
	c-0.543,0.59-1.306,0.322-1.826,0.795c0.391,0.498,0.74,1.016-0.171,1.418c-0.686,0.303-0.436,0.609,0.098,0.85
	c0.655,0.295,1.276,0.688,1.956,0.902c1.152,0.365,1.608,1.186,1.789,2.412c-2.302-0.883-4.245-2.523-6.908-2.594
	c0.748,1.312,1.653,2.361,2.573,3.375c3.545,3.898,5.555,8.744,8.274,13.154c2.169,3.518,3.512,7.33,4.661,11.236
	c1.348,4.582,3.503,8.832,5.284,13.236c0.312,0.77,0.648,1.531,0.759,2.416c-0.177-0.346-0.355-0.691-0.53-1.039
	c-1.638-3.246-3.242-6.51-4.93-9.73c-0.59-1.127-1.315-2.201-2.1-3.203c-2.015-2.576-3.368-5.516-4.748-8.439
	c-2.242-4.75-5.052-9.162-7.926-13.539c-1.884-2.867-2.09-3.057-4.357-4.293c3.147,5.383,6.413,10.906,8.729,16.945
	c-1.747-0.691-3.121-1.83-4.577-2.836c-0.232-0.16-0.352-0.527-0.455-0.824c-1.456-4.15-4.072-7.686-6.119-11.521
	c-0.181-0.34-0.502-0.955-0.957-0.648c-0.473,0.318-0.715,0.912-0.356,1.584c1.431,2.68,2.84,5.371,4.238,8.066
	c1.261,2.432,2.688,4.783,3.397,7.51c-1.351-1.797-2.663-3.625-4.062-5.385c-1.065-1.34-1.839-2.805-2.239-4.455
	c-0.58-2.385-2.023-4.318-3.21-6.395c-0.518-0.908-1.111-0.572-1.704-0.297c-0.774,0.357-0.133,0.834,0.028,1.18
	c2.386,5.115,5.509,9.822,8.157,14.793c0.83,1.559,2.019,2.988,2.178,5.225c-1.624-1.738-3.411-2.799-4.396-4.816
	c-2.274-4.664-4.561-9.338-7.424-13.688c-0.387-0.588-0.8-1.158-1.292-1.686c0.941,4.637,2.099,9.188,3.483,13.684
	c0.966,3.133,1.97,6.248,3.192,9.289c0.608,1.516,0.61,3.133,0.769,4.713c0.455,4.527,0.828,9.062,1.229,13.594
	c0.021,0.234,0.003,0.473,0.003,0.98c-0.809-1.354-1.27-2.533-1.396-3.863c-0.301-3.139-0.437-6.312-1.043-9.395
	c-0.504-2.564-1.495-5.049-2.437-7.506c-0.804-2.102-1.049-4.254-1.07-6.455c-0.01-0.977-0.164-1.895-0.504-2.809
	c-1.156-3.107-2.325-6.211-3.409-9.346c-0.541-1.564-1.832-2.303-3.109-2.986c-1.082-0.578-1.687,0.018-1.509,1.25
	c0.273,1.895,0.534,3.793,0.783,5.691c0.125,0.953-0.029,1.879-0.321,2.828c-0.477-0.369-0.416-0.904-0.489-1.342
	c-0.449-2.648-1.338-5.18-1.978-7.775c-0.206-0.834-0.618-1.033-1.367-0.869c-0.233,0.051-0.471,0.094-0.709,0.113
	c-2.082,0.172-2.142,0.166-2.244,2.293c-0.271,5.584-0.849,11.145-1.23,16.719c-0.179,2.615-1.594,4.609-2.588,6.852
	c-1.083,2.443-3.196,3.686-5.185,5.123c-0.605,0.438-1.237,0.838-2.004,1.117c1.398-1.91,2.715-3.889,4.222-5.709
	c1.084-1.311,1.419-2.789,1.689-4.375c1.121-6.566,1.55-13.24,3.049-19.748c0.242-1.051-0.54-1.686-0.865-2.668
	c-2.16,2.275-3.654,4.805-5.139,7.402c-2.477,4.336-3.138,9.186-4.471,13.85c-0.692,2.424-2.127,4.49-3.215,6.729
	c0.993-5.561,2.562-10.961,3.991-16.396c0.83-3.154,2.803-5.721,4.205-8.58c1.003-2.049,2.822-3.438,4.234-5.375
	c-1.589,0.213-3.002,0.266-4.398,1.016c-2.988,1.605-5.639,3.617-8.067,5.951c-0.827,0.793-1.121,1.922-1.615,2.914
	c-0.329,0.662-0.682,1.178-1.464,1.191c-2.332,0.041-3.951,1.551-5.724,2.746c-0.316,0.213-0.554,0.572-1.077,0.523
	c1.037-2.273,2.255-4.262,4.68-5.318c1.827-0.795,3.56-1.809,4.467-3.771c0.919-1.988,2.746-2.996,4.591-3.836
	c2.753-1.256,5.225-2.91,7.6-4.746c0.404-0.312,0.872-0.543,1.309-0.811c1.643-0.514,3.114-0.014,4.474,0.854
	c1.67,1.064,3.625,1.389,5.391,2.189c3.115,1.412,6.148,0.244,9.203-0.246c1.837-0.295,3.676-0.588,5.503-0.936
	C318.33,451.07,320.318,449.74,321.691,447.525z"/>
<path fill-rule="evenodd" clip-rule="evenodd" fill="#E3C89D" d="M299.206,337.842c-0.193-0.243-0.558-0.361-0.548-0.751
	c0.802-1.747,2.582-2.163,4.072-2.95c2.479-1.31,4.959-0.457,7.302,0.35c1.255,0.432,2.041,1.821,2.559,3.064
	c0.742,1.784,1.242,3.669,1.865,5.572c0.376-0.5,0.587-1.185,1.337-1.25c1.038,1.255,1.312,3.161,0.452,4.528
	c-0.543,0.863-0.498,1.94-1.181,2.714c-0.593,0.198-0.881,0.71-1.212,1.179c-0.94,0.996-1.129,2.35-1.631,3.542
	c-1.02,2.42-2.784,3.678-5.347,3.922c-0.109,0.01-0.236-0.006-0.348,0.218c2.04-0.294,3.721-1.208,5.281-2.39
	c0.401-0.303,0.711-0.797,1.335-0.595c0.067,0.04,0.138,0.083,0.177,0.148c0.935,1.524,0.934,1.524,2.223,0.436
	c2.45,0.469,4.922,0.569,7.407,0.449c1.13,4.362-0.408,8.238-2.201,12.066c-0.329,0.704-1.112,0.882-1.625,1.371
	c-2.098,2.004-4.75,2.445-7.479,2.679c-1.322,0.113-2.467-0.591-3.715-0.814c-3.444-0.616-5.438-3.078-7.251-5.738
	c-0.604-0.887-1.072-1.867-1.603-2.804c-0.906-1.399-1.899-2.742-2.717-4.198c-0.454-0.426-0.812-0.974-1.462-1.15
	c1.409-0.015,2.739-0.169,3.649-1.48c0.303-0.437,0.494-0.789,0.238-1.292c-1.526-3.004-1.556-6.162-0.957-9.384
	c0.689-0.272,1.174,0.32,1.774,0.42c0.639,0.107,1.344,0.404,1.634-0.544c0.004-0.115,0.009-0.229,0.011-0.344
	c0.275-0.975-0.706-1.81-0.313-2.797c-0.153-0.266,0.755,0.104,0.252-0.553C300.355,340.377,299.682,339.15,299.206,337.842z"/>
<path fill-rule="evenodd" clip-rule="evenodd" fill="#A7251B" d="M296.36,358.588c1.035,1.315,2.005,2.673,2.717,4.198
	C297.952,361.529,296.946,360.195,296.36,358.588z"/>
<path fill-rule="evenodd" clip-rule="evenodd" fill="#B5B7B4" d="M313.649,350.077c0.301-0.572,0.41-1.426,1.415-0.958
	c-0.011,0.244-0.022,0.487-0.033,0.73c-0.258,1.056,0.085,2.098,0.092,3.148c0.003,0.459,0.044,0.911-0.047,1.246
	c0.439-0.811-0.463-1.852,0.223-2.759c0.819,1.32,0.277,2.722,0.244,4.094c-0.292,0.693-0.328,1.782-1.365,1.624
	c-1.086-0.166-0.912-1.291-1.072-2.104c-0.548-0.486-0.533-1.143-0.449-1.766C312.808,352.198,313.063,351.084,313.649,350.077z"/>
<path fill-rule="evenodd" clip-rule="evenodd" fill="#DEC99C" d="M298.684,344.342c-0.249,0.28-0.311,0.792-0.862,0.698
	c-0.562-1.681-0.871-3.366-0.082-5.068c0.032,0.343,0.064,0.687,0.096,1.031C298.12,342.116,298.921,343.097,298.684,344.342z"/>
<path fill-rule="evenodd" clip-rule="evenodd" fill="#5A4C34" d="M301.145,341.89c-0.627-1.202-1.672-2.173-1.961-3.562
	c0.008-0.162,0.015-0.324,0.022-0.486c1.108,1.052,1.606,2.496,2.379,3.761C301.79,341.939,301.341,341.854,301.145,341.89z"/>
<path fill-rule="evenodd" clip-rule="evenodd" fill="#E0B87C" d="M313.681,350.411c-0.359,1.668-0.859,3.325-0.723,5.035
	c-1.95,1.538-4.439,2.375-7.028,3.085c-0.295,0.081-0.577,0.254-0.872,0.264c-0.891,0.029-2.101,0.076-2.271-0.647
	c-0.103-0.437,1.181-0.473,1.877-0.509c3.216-0.168,5.393-1.318,6.486-3.651c0.543-1.155,1.266-2.263,1.914-3.39
	C313.181,350.394,313.367,350.269,313.681,350.411z"/>
<path fill-rule="evenodd" clip-rule="evenodd" fill="#B30C2D" d="M303.696,353.193c0.789-0.958,1.737-0.489,2.603-0.218
	c0.576,0.18,0.131,0.622-0.012,0.868c-0.612,1.061-3.202,1.432-4.063,0.54c-0.398-0.413-0.811-0.818-1.479-1.372
	c0.989,0.017,1.714-0.67,2.39,0.194c-0.133,0.178-0.321,0.217-0.453,0.213c0.827,0.179,1.703-0.11,2.563-0.16
	C304.751,353.153,304.204,353.645,303.696,353.193z"/>
<path fill-rule="evenodd" clip-rule="evenodd" fill="#574A32" d="M310.941,337.866c-1.316-0.193-2.113,0.529-2.871,1.489
	c-0.738,0.936-1.101,2.232-2.399,2.669c-0.053-0.054-0.159-0.146-0.15-0.159c1.125-1.609,2.129-3.332,3.797-4.465
	C309.967,336.959,310.584,337.071,310.941,337.866z"/>
<path fill-rule="evenodd" clip-rule="evenodd" fill="#DFDAB9" d="M303.696,353.193c0.72-0.167,1.444-0.476,2.282,0.172
	c-1.45,0.36-2.765,0.481-4.27,0.047c0.575-0.374,1.01-0.181,1.426-0.208C303.325,353.358,303.512,353.329,303.696,353.193z"/>
<ellipse transform="matrix(0.9704 0.2415 -0.2415 0.9704 93.2898 -62.6654)" fill-rule="evenodd" clip-rule="evenodd" fill="#0A0F17" cx="302.286" cy="349.24" rx="0.334" ry="0.133"/>
<ellipse transform="matrix(0.9868 -0.1617 0.1617 0.9868 -52.4411 53.8842)" fill-rule="evenodd" clip-rule="evenodd" fill="#0A0F17" cx="304.885" cy="349.18" rx="0.334" ry="0.089"/>
<path fill-rule="evenodd" clip-rule="evenodd" fill="none" stroke="#231F20" stroke-width="0.0576" stroke-miterlimit="10" d="
	M302.625,349.239c0,0,0.928,0.719,1.93,0"/>
<path fill-rule="evenodd" clip-rule="evenodd" fill="#D7E6F6" d="M301.145,341.89c0.129,1.031,0.717,2.002,0.398,3.09
	c-0.165,0.06-0.339,0.039-0.438-0.089c-1.086-1.405-2.322-2.68-3.457-4.042c0.029-0.292-0.065-0.598,0.092-0.876
	c0.036-0.723,0.204-1.414,0.506-2.072c0.44-0.138,0.694,0.132,0.937,0.427C299.947,339.455,300.941,340.455,301.145,341.89z"/>
<path fill-rule="evenodd" clip-rule="evenodd" fill="#D7E6F6" d="M305.668,343.799c0.001-0.592,0.002-1.184,0.003-1.775
	c0.824-1.04,1.648-2.078,2.414-3.165c0.871-1.238,1.735-1.509,2.856-0.994c0.364,1.134,0.481,2.303,0.501,3.487
	c-0.258,0.417-0.674,0.509-1.119,0.558c-1.287,0.141-2.462,0.523-3.409,1.477C306.595,343.708,306.219,344.076,305.668,343.799z"/>
<path fill-rule="evenodd" clip-rule="evenodd" fill="#475561" d="M305.765,343.703c1.576-1.638,3.434-2.613,5.774-2.446
	c-0.317,1.145-1.147,1.912-1.978,2.68c0.013,0.762-0.529,1.009-1.125,1.163c-0.928,0.24-1.865,0.247-2.799,0.003
	C305.519,344.621,305.457,344.145,305.765,343.703z"/>
<path fill-rule="evenodd" clip-rule="evenodd" fill="#475561" d="M298.781,344.246c-0.502-1.057-1.344-2.028-0.848-3.339
	c1.889,0.717,2.601,2.532,3.707,3.977c0.017,0.078,0.021,0.158,0.014,0.238C300.576,345.221,299.634,344.881,298.781,344.246z"/>
<path fill-rule="evenodd" clip-rule="evenodd" fill="#C9A670" d="M278.322,373.398c0,0,4.011,1.849,4.595,0.599
	s3.477,1.202-4.595,0.434"/>
<path fill-rule="evenodd" clip-rule="evenodd" fill="#C9A670" d="M277.321,375.398c0,0,4.011,1.849,4.595,0.599
	s3.477,1.202-4.595,0.434"/>
<path fill-rule="evenodd" clip-rule="evenodd" fill="#E0B87C" d="M305.204,349.18c0,0,0.136-0.805-0.659-0.618
	c0,0-0.087-3.191,1.186-3.438"/>
<path fill-rule="evenodd" clip-rule="evenodd" fill="#E0B87C" d="M301.976,349.234c0,0-0.136-0.805,0.659-0.618
	c0,0-0.508-3.775-1.259-3.493"/>
<g>
	
		<rect x="269.103" y="369.071" transform="matrix(0.962 -0.273 0.273 0.962 -90.4115 89.3337)" fill-rule="evenodd" clip-rule="evenodd" fill="#B4B6B4" width="13.296" height="0.85"/>
	<g>
		<path fill="#B4B6B4" d="M262.92,375.182l5.915-1.679c0.199-0.233,0.359-0.479,0.474-0.727l-7.174,2.036
			C262.364,374.963,262.628,375.088,262.92,375.182z"/>
		<path fill="#B4B6B4" d="M267.592,369.842l-5.537,1.572c-0.282,0.297-0.509,0.613-0.652,0.94l7.238-2.055
			C268.348,370.097,267.989,369.946,267.592,369.842z"/>
		<path fill="#B4B6B4" d="M261.408,374.021c0.09,0.174,0.207,0.336,0.35,0.48l7.708-2.188c0.055-0.235,0.07-0.471,0.038-0.702
			l-8.126,2.307L261.408,374.021z"/>
		<path fill="#B4B6B4" d="M269.008,370.613l-7.754,2.201c-0.041,0.198-0.042,0.395-0.022,0.59l0.029,0.104l8.118-2.305
			C269.292,370.988,269.173,370.787,269.008,370.613z"/>
	</g>
</g>
<path fill-rule="evenodd" clip-rule="evenodd" fill="none" stroke="#BC2124" stroke-miterlimit="10" d="M291.555,388.57
	c0,0,12.291,4.93,17.993-3.57"/>
<path fill-rule="evenodd" clip-rule="evenodd" fill="none" stroke="#BC2124" stroke-miterlimit="10" d="M333.786,378.14
	c0,0-0.771-8.903-2.778-9.271"/>
<path fill-rule="evenodd" clip-rule="evenodd" fill="none" stroke="#BC2124" stroke-miterlimit="10" d="M289.578,378.188
	c0,0,0.078-2.956,0-4.197"/>
<path fill-rule="evenodd" clip-rule="evenodd" fill="none" stroke="#BC2124" stroke-miterlimit="10" d="M295.446,357.71
	c0,0,5.552,23.969,23.678,11.754c6.331-6.678,4.742-13.713,4.742-13.713"/>
<path fill-rule="evenodd" clip-rule="evenodd" fill="none" stroke="#FFFFFF" stroke-miterlimit="10" d="M290.181,398.822
	c0,0,24.134,11.443,40.102-1.189"/>
<path fill-rule="evenodd" clip-rule="evenodd" fill="none" stroke="#FFFFFF" stroke-miterlimit="10" d="M288.64,402.892
	c0,0,29.903,12.815,43.757-2.288"/>
<path fill-rule="evenodd" clip-rule="evenodd" fill="#FFFFFF" stroke="#FFFFFF" stroke-width="1.1042" stroke-miterlimit="10" d="
	M290.731,399.354c0,0,1.83,18.008,1.895,27.612c0.064,9.606,33.631,2.275,33.631,2.275l1.246-29.318
	C327.503,399.923,305.352,403.711,290.731,399.354z"/>
<path fill-rule="evenodd" clip-rule="evenodd" fill="#0A0F17" d="M305.541,345.199c0.274-0.506,0.735-0.271,1.14-0.303
	c0.99-0.078,2.056,0.064,2.784-0.863c0.628,0.244,0.379,0.723,0.225,1.085c-0.28,0.658-1.885,1.266-2.63,1.055
	c-0.503-0.143-1.007-0.284-1.503-0.448C305.107,345.577,305.537,345.375,305.541,345.199z"/>
<path fill-rule="evenodd" clip-rule="evenodd" fill="#0A0F17" d="M301.556,345.217c0.372,0.486,0.195,0.707-0.335,0.93
	c-1.373,0.575-2.354-0.223-3.392-0.865c-0.001-0.081-0.003-0.161-0.006-0.241c0.172-0.47,0.391-0.892,0.971-0.942
	C299.781,344.305,300.67,344.758,301.556,345.217z"/>
<path fill-rule="evenodd" clip-rule="evenodd" fill="#DBBF99" d="M297.498,347.912l0.148,3.257c0,0,2.53,0.207,3.098,0.832
	s1.182-0.713,0-2.044S297.498,347.912,297.498,347.912z"/>
<path fill-rule="evenodd" clip-rule="evenodd" fill="#DBBF99" d="M306.586,350.35c0,0,5.789-5.577,6.664-5.338
	s0.174,2.312,0.931,2.9s-5.771,3.463-6.569,3.713S306.234,351.638,306.586,350.35z"/>
<text transform="matrix(1 0 0 1 297.1719 410.75)"><tspan x="0" y="0" font-family="'ColorsOfAutumn'" font-size="8">Divine</tspan><tspan x="9.412" y="7" font-family="'ColorsOfAutumn'" font-size="8">&amp;</tspan><tspan x="-3.835" y="14" font-family="'ColorsOfAutumn'" font-size="7">Delicious</tspan></text>
<path fill-rule="evenodd" clip-rule="evenodd" fill="#E2C89C" d="M330.282,397.633c0.729,0.242,1.458,0.484,2.187,0.727
	c1.842,1.303,3.781,2.492,4.957,4.531c0.217,0.373,0.573,0.67,0.472,1.166c-0.565,0.072-1.014,0.412-1.51,0.645
	c-1.374,0.648-2.688,1.494-4.327,1.293c-0.707-0.088-1.108,0.156-0.692,0.945c-0.503,0.182-1.131,0.75-1.5,0.346
	c-0.403-0.439-0.143-1.193,0.227-1.787c-0.551-0.117-0.976,0.152-1.421,0.27c-0.578,0.15-1.273,0.201-1.514-0.309
	c-0.24-0.508,0.073-1.166,0.527-1.598c0.277-0.264,0.63-0.445,1.276-0.891c-0.932,0-1.51,0.012-2.086-0.004
	c-0.288-0.008-0.754,0.143-0.725-0.348c0.026-0.426-0.104-1.027,0.534-1.184c0.578-0.141,1.171-0.221,2.1-0.391
	c-1.395-0.277-2.477-0.494-3.607-0.721c0.396-1.41,1.57-1.152,2.651-1.332c-0.493-0.508-1.088-0.555-1.591-0.76
	c-1.045-0.424-2.174-1.639-1.797-1.934c0.802-0.627,1.802-0.415,2.688-0.094c0.744,0.27,1.42,0.721,2.139,1.064
	C329.592,397.424,329.943,397.514,330.282,397.633z"/>
</svg>
